<?xml version="1.0" standalone="no"?>
<!DOCTYPE svg PUBLIC "-//W3C//DTD SVG 20010904//EN"
 "http://www.w3.org/TR/2001/REC-SVG-20010904/DTD/svg10.dtd">
<svg version="1.0" xmlns="http://www.w3.org/2000/svg"
 width="300.000000pt" height="315.000000pt" viewBox="0 0 300.000000 315.000000"
 preserveAspectRatio="xMidYMid meet">

<g transform="translate(0.000000,315.000000) scale(0.100000,-0.100000)"
fill="#000000" stroke="none">
<path d="M1105 2984 c-153 -25 -281 -89 -385 -194 -41 -42 -90 -101 -108 -132
-40 -68 -81 -182 -89 -248 -6 -48 -6 -49 -72 -81 -141 -69 -253 -217 -287
-382 -47 -221 67 -477 254 -569 57 -28 78 -33 164 -36 l98 -4 0 60 0 59 -82 5
c-97 5 -143 25 -205 90 -157 162 -156 411 1 577 49 52 94 82 161 106 71 26 85
41 85 89 1 147 97 332 223 424 109 81 201 112 334 112 145 0 267 -48 373 -145
65 -60 92 -67 155 -41 41 17 42 15 14 -27 l-21 -32 26 30 c14 17 26 33 26 37
0 12 72 28 125 28 145 0 315 -95 389 -217 36 -59 66 -154 66 -210 0 -77 14
-92 106 -122 118 -38 188 -100 235 -206 60 -136 31 -294 -74 -403 -65 -67
-126 -94 -227 -100 l-85 -4 0 -60 0 -60 105 4 c94 3 112 6 173 35 223 106 329
394 230 628 -28 65 -88 148 -136 188 -44 36 -160 97 -184 97 -6 0 -15 21 -19
48 -19 134 -96 279 -190 360 -62 53 -164 107 -240 127 -76 20 -218 19 -300 -1
l-65 -17 -37 32 c-58 48 -157 101 -238 127 -74 24 -232 38 -299 28z"/>
<path d="M1526 2535 c-80 -28 -108 -85 -82 -166 l16 -49 -35 -52 -35 -53 0
-477 0 -478 60 0 60 0 0 465 0 464 32 45 c20 29 41 47 60 51 37 9 85 57 93 96
15 68 -25 142 -83 155 -15 3 -32 7 -37 9 -6 1 -28 -3 -49 -10z m99 -60 c14
-13 25 -29 25 -35 0 -5 7 -10 15 -10 25 0 16 -23 -25 -64 -31 -32 -47 -40 -75
-40 -28 0 -44 8 -75 40 -41 41 -50 64 -25 64 8 0 15 5 15 10 0 25 50 60 85 60
25 0 44 -8 60 -25z"/>
<path d="M1533 2480 c-12 -5 -27 -18 -33 -29 -9 -18 -8 -21 10 -21 25 0 26
-25 3 -40 -17 -9 -16 -11 6 -30 13 -11 33 -20 46 -20 28 0 76 39 58 46 -19 8
-16 42 3 46 15 3 14 5 -2 25 -22 26 -60 36 -91 23z"/>
<path d="M1900 2252 c-50 -25 -82 -85 -76 -142 l5 -45 -124 -125 c-85 -86
-124 -133 -125 -150 -1 -14 -2 -266 -1 -560 l1 -535 60 0 c56 0 60 2 60 23 0
26 0 26 37 9 20 -9 145 -13 458 -17 l430 -5 3 -264 c2 -186 -1 -268 -9 -277
-17 -21 -2221 -21 -2238 0 -8 9 -11 91 -9 277 l3 264 313 3 312 2 0 25 0 25
-309 0 c-170 0 -317 -3 -326 -6 -40 -16 -45 -51 -45 -327 0 -252 1 -266 21
-291 l20 -26 1139 0 1139 0 20 26 c20 25 21 39 21 291 0 276 -5 311 -45 327
-9 3 -151 6 -316 6 -164 0 -299 2 -299 4 0 3 13 24 29 48 111 165 65 462 -83
532 -69 33 -198 17 -235 -28 -8 -9 -17 -16 -22 -16 -5 0 -9 108 -9 239 l0 240
105 98 106 98 53 0 c68 1 117 35 141 98 47 123 -86 239 -205 179z m90 -37 c10
-12 10 -19 2 -27 -26 -26 -13 -38 38 -38 47 0 50 -2 50 -25 0 -14 -5 -25 -11
-25 -6 0 -9 -12 -7 -27 2 -20 -2 -29 -14 -31 -15 -3 -17 2 -11 28 5 28 3 32
-13 28 -14 -3 -18 -11 -16 -31 2 -19 -2 -27 -13 -27 -11 0 -15 8 -13 27 2 20
-2 28 -16 31 -16 4 -18 0 -13 -28 6 -26 4 -31 -11 -28 -12 2 -16 11 -14 32 3
22 0 27 -15 24 -13 -3 -17 -11 -15 -31 2 -19 -2 -27 -12 -27 -12 0 -14 7 -9
30 4 24 2 30 -11 30 -12 0 -16 7 -14 23 3 19 10 22 56 25 37 2 52 7 52 18 0 7
-4 14 -10 14 -11 0 -14 33 -3 43 11 12 30 8 43 -8z m-99 -976 c15 -10 38 -40
51 -67 33 -66 33 -207 1 -269 -45 -83 -107 -109 -174 -71 -62 35 -69 56 -69
212 0 132 1 135 27 167 51 60 106 69 164 28z"/>
<path d="M544 1846 c-45 -20 -64 -52 -64 -109 0 -41 5 -53 30 -77 59 -55 148
-39 184 34 17 36 18 43 5 79 -24 68 -93 101 -155 73z m39 -59 c4 3 7 -5 7 -20
0 -20 -5 -25 -20 -24 -11 1 -20 6 -20 11 0 5 -7 17 -16 27 -25 27 -7 45 20 20
12 -12 26 -18 29 -14z m83 18 c6 -16 -31 -54 -53 -55 -18 0 -16 17 5 45 20 28
40 32 48 10z m-26 -77 c0 -6 7 -19 14 -27 10 -11 12 -21 6 -31 -7 -12 -12 -11
-28 8 -11 12 -24 22 -30 22 -8 0 -9 16 -3 38 3 8 41 0 41 -10z m-60 -10 c0
-16 -31 -48 -47 -48 -19 0 -16 30 5 46 21 17 42 18 42 2z"/>
<path d="M1285 1156 c-46 -17 -105 -76 -105 -106 0 -17 7 -20 39 -20 22 0 46
-3 54 -6 9 -3 16 2 19 14 3 11 17 28 32 37 46 30 106 -1 106 -54 0 -28 -2 -29
-76 -40 -134 -20 -186 -61 -186 -146 0 -96 68 -148 163 -125 26 6 57 22 70 36
22 23 40 31 38 17 -7 -46 0 -53 56 -53 l55 0 0 173 c0 188 -8 221 -62 260 -35
26 -148 33 -203 13z m142 -268 c-11 -78 -75 -131 -117 -93 -43 39 -13 103 60
123 61 18 63 16 57 -30z"/>
<path d="M500 420 l0 -190 55 0 55 0 0 75 0 75 103 0 c148 1 217 37 217 115 0
42 -25 74 -74 96 -34 16 -66 19 -198 19 l-158 0 0 -190z m298 114 c30 -21 29
-59 -3 -80 -15 -9 -56 -18 -105 -21 l-80 -6 0 62 0 61 83 0 c59 0 89 -5 105
-16z"/>
<path d="M1030 420 l0 -190 50 0 50 0 0 125 c0 69 3 125 8 124 4 0 57 -56 117
-125 l110 -124 53 0 52 0 0 190 0 190 -50 0 -50 0 0 -131 0 -130 -117 130
-117 131 -53 0 -53 0 0 -190z"/>
<path d="M1610 420 l0 -190 210 0 210 0 0 30 0 30 -160 0 -160 0 0 55 0 55
145 0 145 0 0 30 0 30 -145 0 -145 0 0 45 0 45 155 0 155 0 0 30 0 30 -205 0
-205 0 0 -190z"/>
<path d="M2100 580 l0 -30 85 0 85 0 0 -160 0 -160 55 0 55 0 0 160 0 160 80
0 80 0 0 30 0 30 -220 0 -220 0 0 -30z"/>
</g>
</svg>
